<svg width="1200" height="560" viewBox="0 0 1200 560" xmlns="http://www.w3.org/2000/svg">
  <rect width="1200" height="560" rx="24" fill="#030711" />
  <rect x="80" y="90" width="240" height="120" rx="16" fill="#111827" stroke="#55f7c3" stroke-width="2" />
  <text x="200" y="145" text-anchor="middle" fill="#f8fafc" font-family="Inter, sans-serif" font-size="24">AI Agents</text>
  <text x="200" y="176" text-anchor="middle" fill="#8ea8c7" font-family="Inter, sans-serif" font-size="16">Copilots • Tools • Workflows</text>

  <rect x="400" y="90" width="240" height="120" rx="16" fill="#111827" stroke="#7c8cff" stroke-width="2" />
  <text x="520" y="145" text-anchor="middle" fill="#f8fafc" font-family="Inter, sans-serif" font-size="24">OTel Collector</text>
  <text x="520" y="176" text-anchor="middle" fill="#8ea8c7" font-family="Inter, sans-serif" font-size="16">Traces • Metrics • Logs</text>

  <rect x="720" y="90" width="240" height="120" rx="16" fill="#111827" stroke="#55f7c3" stroke-width="2" />
  <text x="840" y="145" text-anchor="middle" fill="#f8fafc" font-family="Inter, sans-serif" font-size="24">SigNoz</text>
  <text x="840" y="176" text-anchor="middle" fill="#8ea8c7" font-family="Inter, sans-serif" font-size="16">Dashboards • Alerts • Queries</text>

  <rect x="320" y="330" width="240" height="120" rx="16" fill="#111827" stroke="#ffbf69" stroke-width="2" />
  <text x="440" y="385" text-anchor="middle" fill="#f8fafc" font-family="Inter, sans-serif" font-size="24">SRE Console</text>
  <text x="440" y="416" text-anchor="middle" fill="#8ea8c7" font-family="Inter, sans-serif" font-size="16">Incident response • Trust scoring</text>

  <rect x="620" y="330" width="240" height="120" rx="16" fill="#111827" stroke="#ff6b6b" stroke-width="2" />
  <text x="740" y="385" text-anchor="middle" fill="#f8fafc" font-family="Inter, sans-serif" font-size="24">Human Review</text>
  <text x="740" y="416" text-anchor="middle" fill="#8ea8c7" font-family="Inter, sans-serif" font-size="16">Policy approval • Escalation</text>

  <path d="M320 150 L400 150" stroke="#55f7c3" stroke-width="3" marker-end="url(#arrow)" />
  <path d="M640 150 L720 150" stroke="#7c8cff" stroke-width="3" marker-end="url(#arrow)" />
  <path d="M840 210 L740 330" stroke="#ffbf69" stroke-width="3" marker-end="url(#arrow)" />
  <path d="M520 210 L440 330" stroke="#ff6b6b" stroke-width="3" marker-end="url(#arrow)" />

  <defs>
    <marker id="arrow" markerWidth="10" markerHeight="10" refX="8" refY="3" orient="auto" markerUnits="strokeWidth">
      <path d="M0,0 L0,6 L9,3 z" fill="#f8fafc" />
    </marker>
  </defs>
</svg>